<?xml version="1.0" encoding="utf-8"?>
<!-- Generator: Adobe Illustrator 17.1.0, SVG Export Plug-In . SVG Version: 6.00 Build 0)  -->
<!DOCTYPE svg PUBLIC "-//W3C//DTD SVG 1.1//EN" "http://www.w3.org/Graphics/SVG/1.1/DTD/svg11.dtd">
<svg version="1.1" id="Layer_1" xmlns="http://www.w3.org/2000/svg" xmlns:xlink="http://www.w3.org/1999/xlink" x="0px" y="0px"
	 viewBox="0 105 300 90" enable-background="new 0 105 300 90" xml:space="preserve">
<g enable-background="new    ">
	<path fill="#FFFFFF" d="M13.8,182.9H8.6v-67.7h40.6v4.4H13.8v28.7h33.5v4.4H13.8V182.9z"/>
</g>
<g enable-background="new    ">
	<path fill="#FFFFFF" d="M113.7,182.9h-4.3l-16.3-52.3c-1.4-4.3-2.4-7.8-3-10.6c-0.5,2.7-1.3,5.8-2.3,9.3c-1,3.5-6.5,21.3-16.4,53.5
		H67l-20.4-67.7h5.4l13,43.6c0.5,1.8,1,3.4,1.4,4.9c0.4,1.5,0.8,2.9,1.2,4.2c0.4,1.3,0.7,2.6,1,3.8c0.3,1.2,0.5,2.4,0.8,3.7
		c0.8-4.2,2.5-10.6,5.2-19.1l12.7-41.1H93l14.9,47.2c1.7,5.4,3,9.8,3.7,13.2c0.4-2.2,1-4.6,1.7-7.1c0.7-2.5,5.9-20.2,15.7-53.2h5.2
		L113.7,182.9z"/>
	<path fill="#FFFFFF" d="M189.5,148.4c0,11.4-3.3,20-9.8,25.8s-16.1,8.7-28.8,8.7h-17.8v-67.7h20c11.8,0,20.8,2.8,27,8.5
		C186.4,129.3,189.5,137.6,189.5,148.4z M183.8,148.6c0-9.7-2.7-17-8.1-21.9c-5.4-4.9-13.3-7.3-23.8-7.3h-13.6v59.4h12.3
		C172.7,178.7,183.8,168.7,183.8,148.6z"/>
</g>
<g enable-background="new    ">
	<path fill="#5199D3" d="M189.2,176.6c0-1.4,0.5-2.6,1.5-3.6s2.2-1.5,3.7-1.5s2.6,0.5,3.7,1.5s1.5,2.2,1.5,3.7
		c0,1.4-0.5,2.7-1.5,3.7c-1,1-2.2,1.5-3.7,1.5c-1.5,0-2.7-0.5-3.7-1.5C189.7,179.4,189.2,178.1,189.2,176.6z"/>
</g>
<g enable-background="new    ">
	<path fill="#5199D3" d="M245.4,171.9c0,1.4,0.2,2.5,0.6,3.4c0.4,0.8,1,1.5,1.7,1.9s1.5,0.7,2.5,0.9c0.9,0.1,1.9,0.2,3,0.2h0.3v4
		h-15.1l-1.2-7.7h-0.5c-1,1.8-2,3.2-3.2,4.4c-1.2,1.1-2.4,2-3.7,2.6s-2.7,1.1-4.1,1.3c-1.4,0.2-2.9,0.3-4.4,0.3
		c-2.5,0-4.7-0.4-6.7-1.1s-3.6-1.8-4.9-3.3c-1.3-1.5-2.3-3.4-3-5.8c-0.7-2.3-1-5.1-1-8.4v-22.7c0-1.4-0.2-2.5-0.6-3.4
		c-0.4-0.8-1-1.5-1.7-2c-0.7-0.5-1.5-0.8-2.5-0.9c-0.9-0.2-1.9-0.2-3-0.2h-0.3v-4h17v32.8c0,2.1,0.2,3.9,0.5,5.5
		c0.3,1.6,0.9,3,1.6,4.1c0.8,1.1,1.8,2,3.1,2.5c1.3,0.6,2.9,0.9,4.8,0.9c2.1,0,3.9-0.4,5.4-1.1c1.5-0.7,2.7-1.8,3.7-3.1
		c1-1.3,1.7-3,2.2-4.8s0.7-4,0.7-6.3v-19.5c0-1.5-0.2-2.7-0.6-3.6c-0.4-0.9-1-1.6-1.7-2.1c-0.7-0.5-1.5-0.8-2.5-0.9
		c-0.9-0.2-2-0.2-3-0.2h-0.3v-4h17V171.9z"/>
</g>
<g enable-background="new    ">
	<path fill="#5199D3" d="M273.7,183.2c-2.4,0-4.5-0.2-6.5-0.6s-3.6-1-4.9-1.9c-1.4-0.8-2.4-1.9-3.2-3.2s-1.1-2.7-1.1-4.4
		c0-1.3,0.2-2.3,0.6-3.2c0.4-0.8,0.9-1.5,1.5-2c0.6-0.5,1.2-0.8,1.9-1c0.7-0.2,1.3-0.3,1.9-0.3c0,1.7,0.2,3.2,0.5,4.7
		c0.3,1.5,0.9,2.7,1.7,3.8c0.8,1.1,1.9,2,3.2,2.6c1.3,0.6,2.9,0.9,4.8,0.9c1.7,0,3.2-0.2,4.5-0.6c1.3-0.4,2.4-1,3.3-1.8
		c0.9-0.8,1.6-1.7,2-2.7s0.7-2.2,0.7-3.5c0-1.2-0.2-2.2-0.5-3c-0.4-0.8-1-1.6-1.9-2.4c-0.9-0.7-2.1-1.5-3.6-2.3
		c-1.5-0.8-3.4-1.7-5.7-2.6c-2.4-1.1-4.6-2.1-6.4-3.1c-1.8-1-3.3-2.1-4.5-3.3c-1.2-1.2-2.1-2.5-2.6-4c-0.6-1.5-0.9-3.3-0.9-5.4
		c0-2.2,0.4-4.1,1.3-5.7c0.8-1.7,2.1-3.1,3.6-4.2c1.6-1.1,3.5-2,5.7-2.6c2.2-0.6,4.6-0.9,7.3-0.9c2.3,0,4.2,0.2,6,0.7
		c1.7,0.5,3.2,1.1,4.4,1.9c1.2,0.8,2.1,1.7,2.6,2.8c0.6,1.1,0.9,2.2,0.9,3.4c0,1.7-0.6,3.1-1.8,4.1c-1.2,1-2.9,1.6-5.1,1.6
		c0-3.2-0.7-5.7-2-7.4c-1.3-1.8-3.4-2.6-6.2-2.6c-1.6,0-3,0.2-4.1,0.6c-1.1,0.4-2.1,0.9-2.8,1.6c-0.7,0.7-1.3,1.5-1.6,2.4
		c-0.3,0.9-0.5,1.9-0.5,3.1c0,1.2,0.2,2.2,0.6,3.1c0.4,0.9,1.1,1.7,2.1,2.4c0.9,0.7,2.2,1.5,3.7,2.2c1.5,0.7,3.3,1.5,5.4,2.3
		c2.5,1.1,4.6,2.1,6.4,3.1c1.8,1,3.3,2.1,4.4,3.3c1.2,1.2,2,2.6,2.6,4.1c0.6,1.5,0.8,3.3,0.8,5.2c0,2.5-0.4,4.6-1.3,6.5
		c-0.9,1.9-2.2,3.4-3.8,4.7c-1.6,1.3-3.6,2.2-5.9,2.8C279,182.8,276.5,183.2,273.7,183.2z"/>
</g>
</svg>
