<?xml version="1.0" encoding="utf-8"?>
<!-- Generator: Adobe Illustrator 17.1.0, SVG Export Plug-In . SVG Version: 6.00 Build 0)  -->
<!DOCTYPE svg PUBLIC "-//W3C//DTD SVG 1.1//EN" "http://www.w3.org/Graphics/SVG/1.1/DTD/svg11.dtd">
<svg version="1.1" id="Layer_1" xmlns="http://www.w3.org/2000/svg" xmlns:xlink="http://www.w3.org/1999/xlink" x="0px" y="0px"
	 viewBox="0 105 300 90" enable-background="new 0 105 300 90" xml:space="preserve">
<g enable-background="new    ">
	<path fill="#2E2D2C" d="M8.4,184.2H3.1v-70.4h42.2v4.5H8.4v29.8h34.8v4.6H8.4V184.2z"/>
</g>
<g enable-background="new    ">
	<path fill="#2E2D2C" d="M112.2,184.2h-4.4l-16.9-54.3c-1.4-4.5-2.5-8.1-3.2-11c-0.6,2.8-1.4,6-2.4,9.6c-1,3.6-6.7,22.2-17,55.7
		h-4.5l-21.2-70.4h5.6l13.5,45.4c0.5,1.8,1,3.5,1.5,5.1c0.5,1.6,0.9,3,1.2,4.4s0.7,2.7,1,3.9c0.3,1.3,0.6,2.5,0.8,3.8
		c0.8-4.4,2.6-11,5.4-19.9l13.2-42.7h6l15.5,49c1.8,5.6,3.1,10.2,3.8,13.7c0.5-2.3,1-4.8,1.8-7.4c0.7-2.6,6.1-21,16.3-55.3h5.4
		L112.2,184.2z"/>
	<path fill="#2E2D2C" d="M191,148.3c0,11.8-3.4,20.7-10.2,26.8c-6.8,6.1-16.8,9.1-29.9,9.1h-18.5v-70.4h20.8
		c12.3,0,21.7,2.9,28.1,8.8C187.8,128.5,191,137.1,191,148.3z M185.1,148.5c0-10.1-2.8-17.7-8.4-22.7c-5.6-5.1-13.8-7.6-24.7-7.6
		h-14.2v61.7h12.8C173.6,179.9,185.1,169.4,185.1,148.5z"/>
</g>
<g enable-background="new    ">
	<path fill="#5199D3" d="M190.7,177.7c0-1.4,0.5-2.7,1.6-3.8c1.1-1.1,2.3-1.6,3.8-1.6s2.7,0.5,3.8,1.6c1.1,1.1,1.6,2.3,1.6,3.8
		c0,1.5-0.5,2.8-1.6,3.8c-1,1-2.3,1.6-3.8,1.6c-1.5,0-2.8-0.5-3.8-1.6C191.2,180.5,190.7,179.2,190.7,177.7z"/>
</g>
<g enable-background="new    ">
	<path fill="#5199D3" d="M249.1,172.8c0,1.4,0.2,2.6,0.6,3.5c0.4,0.9,1,1.5,1.8,2c0.7,0.5,1.6,0.7,2.6,0.9c1,0.1,2,0.2,3.1,0.2h0.3
		v4.1h-15.6l-1.3-8h-0.5c-1,1.9-2.1,3.4-3.3,4.5c-1.2,1.2-2.5,2.1-3.8,2.7c-1.3,0.7-2.8,1.1-4.2,1.3c-1.5,0.2-3,0.4-4.6,0.4
		c-2.6,0-4.9-0.4-6.9-1.1c-2-0.7-3.7-1.9-5.1-3.5s-2.4-3.6-3.2-6c-0.7-2.4-1.1-5.3-1.1-8.7v-23.6c0-1.4-0.2-2.6-0.6-3.5
		c-0.4-0.9-1-1.6-1.8-2s-1.6-0.8-2.6-1c-1-0.2-2-0.2-3.1-0.2h-0.3v-4.1h17.7v34c0,2.2,0.2,4.1,0.5,5.7c0.3,1.7,0.9,3.1,1.7,4.2
		c0.8,1.2,1.8,2,3.2,2.6c1.3,0.6,3,0.9,5,0.9c2.2,0,4.1-0.4,5.6-1.2c1.6-0.8,2.8-1.9,3.9-3.2c1-1.4,1.8-3.1,2.2-5
		c0.5-2,0.7-4.1,0.7-6.5v-20.3c0-1.5-0.2-2.8-0.6-3.7c-0.4-0.9-1-1.7-1.7-2.2c-0.7-0.5-1.6-0.8-2.6-1c-1-0.2-2-0.2-3.2-0.2h-0.3
		v-4.1h17.6V172.8z"/>
</g>
<g enable-background="new    ">
	<path fill="#5199D3" d="M278.5,184.5c-2.5,0-4.7-0.2-6.7-0.7c-2-0.4-3.7-1.1-5.1-2c-1.4-0.9-2.5-2-3.3-3.3s-1.2-2.8-1.2-4.5
		c0-1.3,0.2-2.4,0.6-3.3s1-1.6,1.6-2.1s1.3-0.9,2-1.1c0.7-0.2,1.4-0.3,1.9-0.3c0,1.7,0.2,3.4,0.5,4.9c0.4,1.5,0.9,2.8,1.8,4
		c0.8,1.1,1.9,2,3.3,2.7c1.4,0.7,3,1,5,1c1.8,0,3.3-0.2,4.7-0.7c1.3-0.4,2.5-1,3.4-1.8s1.6-1.7,2.1-2.8s0.7-2.3,0.7-3.6
		c0-1.2-0.2-2.3-0.6-3.2c-0.4-0.9-1-1.7-1.9-2.5s-2.2-1.6-3.7-2.4c-1.6-0.8-3.5-1.7-5.9-2.7c-2.5-1.1-4.7-2.2-6.6-3.2
		s-3.4-2.2-4.6-3.4s-2.1-2.6-2.7-4.2c-0.6-1.6-0.9-3.4-0.9-5.6c0-2.2,0.4-4.2,1.3-6c0.9-1.7,2.1-3.2,3.8-4.4
		c1.6-1.2,3.6-2.1,5.9-2.7c2.3-0.6,4.8-0.9,7.6-0.9c2.3,0,4.4,0.2,6.2,0.7c1.8,0.5,3.3,1.1,4.5,1.9s2.1,1.8,2.7,2.9
		c0.6,1.1,0.9,2.3,0.9,3.5c0,1.8-0.6,3.2-1.9,4.3c-1.2,1.1-3,1.6-5.3,1.6c0-3.3-0.7-5.9-2-7.7c-1.4-1.8-3.5-2.7-6.4-2.7
		c-1.7,0-3.1,0.2-4.3,0.6c-1.2,0.4-2.2,0.9-2.9,1.6c-0.8,0.7-1.3,1.5-1.7,2.5c-0.4,1-0.5,2-0.5,3.2c0,1.3,0.2,2.3,0.7,3.2
		c0.4,0.9,1.2,1.8,2.1,2.5c1,0.8,2.2,1.5,3.8,2.2c1.6,0.7,3.4,1.5,5.6,2.4c2.6,1.1,4.8,2.2,6.7,3.2c1.9,1.1,3.4,2.2,4.6,3.5
		c1.2,1.3,2.1,2.7,2.7,4.2c0.6,1.6,0.9,3.4,0.9,5.4c0,2.6-0.5,4.8-1.4,6.7c-0.9,1.9-2.2,3.5-3.9,4.8s-3.7,2.3-6.1,2.9
		C284.1,184.1,281.5,184.5,278.5,184.5z"/>
</g>
</svg>
